<svg width="132" height="56" viewBox="0 0 132 56" fill="none" xmlns="http://www.w3.org/2000/svg">
<g clip-path="url(#clip0_3025_38121)">
<path d="M0 4.66667C0 2.08934 2.08934 0 4.66667 0H28C32.6667 4.66667 37.3333 9.33333 42 14V51.3333C42 53.9106 39.9106 56 37.3333 56H4.66667C2.08934 56 0 53.9106 0 51.3333V4.66667Z" fill="#E6E3EE"/>
<path d="M28 7.62939e-06L42 14H32.6666C30.0893 14 28 11.9106 28 9.33334V7.62939e-06Z" fill="#B8B6C0"/>
<path d="M13.1167 45.9468C13.1766 46.2206 13.3263 46.4302 13.5659 46.5756C13.814 46.7211 14.1263 46.7938 14.5027 46.7938C14.8792 46.7938 15.1743 46.7211 15.3882 46.5756C15.6021 46.4302 15.7091 46.2249 15.7091 45.9596C15.7091 45.7543 15.6321 45.5918 15.4781 45.472C15.3326 45.3522 15.123 45.2752 14.8492 45.241L13.6942 45.0998C13.1039 45.0228 12.6376 44.8346 12.2954 44.5351C11.9532 44.2357 11.7821 43.8079 11.7821 43.2518C11.7821 42.8497 11.8933 42.4904 12.1157 42.1738C12.3382 41.8487 12.6462 41.5963 13.0397 41.4166C13.4333 41.2284 13.8782 41.1343 14.3744 41.1343C14.8621 41.1343 15.2941 41.2156 15.6706 41.3781C16.047 41.5321 16.3507 41.7589 16.5817 42.0583C16.8213 42.3492 16.971 42.6957 17.0309 43.0978H15.6064C15.5208 42.8411 15.3711 42.6486 15.1572 42.5203C14.9433 42.392 14.6738 42.3278 14.3487 42.3278C14.0151 42.3278 13.7456 42.4048 13.5402 42.5588C13.3349 42.7128 13.2322 42.9053 13.2322 43.1363C13.2322 43.3416 13.3007 43.4999 13.4376 43.6111C13.5745 43.7138 13.7755 43.7823 14.0407 43.8165L15.2214 43.9705C15.8117 44.0475 16.2823 44.24 16.6331 44.548C16.9838 44.856 17.1592 45.2966 17.1592 45.8698C17.1592 46.3147 17.0437 46.6954 16.8127 47.012C16.5817 47.3285 16.2652 47.5724 15.8631 47.7435C15.461 47.906 15.0118 47.9873 14.5156 47.9873C14.0365 47.9873 13.5916 47.9189 13.1809 47.782C12.7702 47.6365 12.428 47.4141 12.1542 47.1146C11.8805 46.8066 11.7179 46.4174 11.6666 45.9468H13.1167Z" fill="#4E4E53"/>
<path d="M21.7527 47.8333H20.2255L17.7358 41.2883H19.3143L21.188 46.5756H20.803L22.6638 41.2883H24.2552L21.7527 47.8333Z" fill="#4E4E53"/>
<path d="M31.1027 41.2883V47.397C31.1027 48.0301 30.9744 48.5819 30.7177 49.0525C30.4696 49.523 30.1103 49.8824 29.6397 50.1305C29.1692 50.3871 28.6088 50.5155 27.9586 50.5155C27.3682 50.5155 26.8549 50.4171 26.4186 50.2203C25.9908 50.0235 25.6614 49.7626 25.4304 49.4375C25.208 49.1209 25.0796 48.783 25.0454 48.4236H26.4956C26.5811 48.6803 26.7394 48.8856 26.9704 49.0396C27.2014 49.2022 27.5351 49.2835 27.9714 49.2835C28.3222 49.2835 28.6216 49.2065 28.8697 49.0525C29.1179 48.907 29.3061 48.6931 29.4344 48.4108C29.5627 48.1285 29.6269 47.7905 29.6269 47.397V46.1521L29.9092 46.242C29.8494 46.5072 29.7253 46.7553 29.5371 46.9863C29.3574 47.2173 29.1093 47.4098 28.7927 47.5638C28.4762 47.7178 28.0955 47.7948 27.6506 47.7948C27.1287 47.7948 26.6496 47.6665 26.2132 47.4098C25.7769 47.1446 25.4261 46.7639 25.1609 46.2676C24.8957 45.7629 24.7631 45.164 24.7631 44.471C24.7631 43.778 24.8957 43.1834 25.1609 42.6871C25.4261 42.1824 25.7812 41.7974 26.2261 41.5321C26.6795 41.2669 27.1715 41.1343 27.7019 41.1343C28.1211 41.1343 28.489 41.207 28.8056 41.3525C29.1307 41.4979 29.3788 41.6819 29.5499 41.9043C29.721 42.1182 29.8194 42.3364 29.8451 42.5588L29.6911 42.777V41.2883H31.1027ZM27.9457 46.5115C28.2965 46.5115 28.6002 46.4259 28.8569 46.2548C29.1136 46.0837 29.3104 45.8484 29.4472 45.549C29.5927 45.241 29.6654 44.8902 29.6654 44.4966V44.4453C29.6654 44.0518 29.597 43.7053 29.4601 43.4058C29.3232 43.0978 29.1221 42.8583 28.8569 42.6871C28.6002 42.5075 28.2965 42.4176 27.9457 42.4176C27.6121 42.4176 27.3169 42.5075 27.0602 42.6871C26.8036 42.8583 26.6025 43.1021 26.4571 43.4186C26.3202 43.7266 26.2517 44.0774 26.2517 44.471C26.2517 44.8645 26.3202 45.2153 26.4571 45.5233C26.6025 45.8313 26.8036 46.0751 27.0602 46.2548C27.3169 46.4259 27.6121 46.5115 27.9457 46.5115Z" fill="#4E4E53"/>
</g>
<path fill-rule="evenodd" clip-rule="evenodd" d="M66.0001 19C66.5524 19 67.0001 19.4477 67.0001 20L67 27L74 26.9999C74.5523 26.9999 75 27.4476 75 27.9999C75 28.5522 74.5523 28.9999 74 28.9999L67 29L66.9999 36C66.9999 36.5523 66.5522 37 65.9999 37C65.4476 37 64.9999 36.5523 64.9999 36L65 29L58 29.0001C57.4477 29.0001 57 28.5524 57 28.0001C57 27.4478 57.4477 27.0001 58 27.0001L65 27L65.0001 20C65.0001 19.4477 65.4478 19 66.0001 19Z" fill="#605676"/>
<g clip-path="url(#clip1_3025_38121)">
<path d="M90 4.66667C90 2.08934 92.0893 0 94.6667 0H118C122.667 4.66667 127.333 9.33333 132 14V51.3333C132 53.9106 129.911 56 127.333 56H94.6667C92.0893 56 90 53.9106 90 51.3333V4.66667Z" fill="#E6E3EE"/>
<path d="M118 7.62939e-06L132 14H122.667C120.089 14 118 11.9106 118 9.33334V7.62939e-06Z" fill="#B8B6C0"/>
<path d="M98.7614 47.8333H97.2856V38.5035H98.7614V47.8333Z" fill="#4E4E53"/>
<path d="M103.381 41.1343C104.014 41.1343 104.574 41.2798 105.062 41.5707C105.549 41.853 105.926 42.2551 106.191 42.777C106.465 43.2989 106.602 43.8935 106.602 44.5608C106.602 45.2282 106.465 45.8228 106.191 46.3447C105.926 46.858 105.549 47.2601 105.062 47.551C104.574 47.8419 104.014 47.9873 103.381 47.9873C102.747 47.9873 102.187 47.8419 101.699 47.551C101.212 47.2601 100.831 46.858 100.557 46.3447C100.292 45.8228 100.159 45.2282 100.159 44.5608C100.159 43.8935 100.292 43.2989 100.557 42.777C100.831 42.2551 101.212 41.853 101.699 41.5707C102.187 41.2798 102.747 41.1343 103.381 41.1343ZM103.381 46.6783C103.731 46.6783 104.039 46.5928 104.305 46.4217C104.57 46.242 104.771 45.9939 104.908 45.6773C105.045 45.3522 105.113 44.98 105.113 44.5608C105.113 44.1416 105.045 43.7737 104.908 43.4572C104.771 43.132 104.57 42.8797 104.305 42.7C104.039 42.5203 103.731 42.4305 103.381 42.4305C103.03 42.4305 102.722 42.5203 102.457 42.7C102.191 42.8797 101.99 43.132 101.853 43.4572C101.716 43.7737 101.648 44.1416 101.648 44.5608C101.648 44.98 101.716 45.3522 101.853 45.6773C101.99 45.9939 102.191 46.242 102.457 46.4217C102.722 46.5928 103.03 46.6783 103.381 46.6783Z" fill="#4E4E53"/>
<path d="M111.196 41.2883V42.5332H107.321V41.2883H111.196ZM109.836 45.6003C109.836 45.9682 109.917 46.2206 110.08 46.3575C110.242 46.4858 110.478 46.55 110.786 46.55H111.196V47.8462H110.529C109.793 47.8462 109.25 47.675 108.899 47.3328C108.549 46.9906 108.373 46.4473 108.373 45.703V39.5815H109.836V45.6003Z" fill="#4E4E53"/>
<path d="M115.909 41.2883V42.5332H112.033V41.2883H115.909ZM114.548 45.6003C114.548 45.9682 114.63 46.2206 114.792 46.3575C114.955 46.4858 115.19 46.55 115.498 46.55H115.909V47.8462H115.241C114.506 47.8462 113.962 47.675 113.612 47.3328C113.261 46.9906 113.085 46.4473 113.085 45.703V39.5815H114.548V45.6003Z" fill="#4E4E53"/>
<path d="M118.738 47.8333H117.262V41.2883H118.738V47.8333ZM117.994 38.4522C118.251 38.4522 118.465 38.5377 118.636 38.7088C118.815 38.8714 118.905 39.081 118.905 39.3377C118.905 39.5943 118.815 39.8082 118.636 39.9793C118.465 40.1504 118.251 40.236 117.994 40.236C117.737 40.236 117.519 40.1504 117.339 39.9793C117.168 39.8082 117.083 39.5943 117.083 39.3377C117.083 39.081 117.168 38.8714 117.339 38.7088C117.519 38.5377 117.737 38.4522 117.994 38.4522Z" fill="#4E4E53"/>
<path d="M120.945 43.8678H124.962L124.782 44.1117V43.9962C124.782 43.4828 124.645 43.0807 124.371 42.7898C124.106 42.4989 123.738 42.3535 123.268 42.3535C122.951 42.3535 122.669 42.4219 122.421 42.5588C122.181 42.6957 121.993 42.8925 121.856 43.1492C121.728 43.4058 121.659 43.7053 121.651 44.0475C121.651 44.364 121.651 44.6849 121.651 45.01C121.651 45.3437 121.723 45.6431 121.869 45.9083C122.014 46.1735 122.22 46.3832 122.485 46.5372C122.75 46.6826 123.054 46.7553 123.396 46.7553C123.755 46.7553 124.05 46.6826 124.281 46.5372C124.512 46.3832 124.658 46.2206 124.718 46.0495H126.168C126.108 46.366 125.967 46.6698 125.744 46.9607C125.522 47.2515 125.21 47.4954 124.808 47.6922C124.405 47.8889 123.926 47.9873 123.37 47.9873C122.729 47.9873 122.164 47.8504 121.676 47.5767C121.189 47.3029 120.808 46.9093 120.534 46.396C120.269 45.8741 120.136 45.2667 120.136 44.5737C120.136 43.8807 120.269 43.2732 120.534 42.7513C120.799 42.2294 121.167 41.8316 121.638 41.5578C122.117 41.2755 122.664 41.1343 123.28 41.1343C123.871 41.1343 124.388 41.2669 124.833 41.5322C125.287 41.7974 125.633 42.1781 125.873 42.6743C126.121 43.162 126.245 43.7309 126.245 44.3812V44.9843H120.945V43.8678Z" fill="#4E4E53"/>
</g>
<defs>
<clipPath id="clip0_3025_38121">
<rect width="42" height="56" fill="white"/>
</clipPath>
<clipPath id="clip1_3025_38121">
<rect width="42" height="56" fill="white" transform="translate(90)"/>
</clipPath>
</defs>
</svg>
