<?xml version="1.0" standalone="no"?>
<!DOCTYPE svg PUBLIC "-//W3C//DTD SVG 20010904//EN"
 "http://www.w3.org/TR/2001/REC-SVG-20010904/DTD/svg10.dtd">
<svg version="1.0" xmlns="http://www.w3.org/2000/svg"
 width="100.000000pt" height="40.000000pt" viewBox="0 0 117.000000 46.000000"
 preserveAspectRatio="xMidYMid meet">

<g transform="translate(0.000000,46.000000) scale(0.100000,-0.100000)"
fill="currentColor" stroke="none">
<path d="M770 340 c0 -30 0 -30 55 -30 l55 0 0 -110 0 -110 30 0 30 0 0 110 0
110 56 0 c54 0 55 0 52 28 l-3 27 -137 3 -138 3 0 -31z"/>
<path d="M1100 230 l0 -141 33 3 32 3 0 135 0 135 -32 3 -33 3 0 -141z"/>
</g>
</svg>
